<svg width="30" height="30" viewBox="0 0 30 30" fill="none" xmlns="http://www.w3.org/2000/svg">
<rect width="30" height="30" rx="2" fill="url(#paint0_linear_0_3)"/>
<path fill-rule="evenodd" clip-rule="evenodd" d="M0 27V28C0 29.1046 1 30 2.05234 30L1.5 29C0.671572 29 0 28.1046 0 27ZM2.05234 30H28C29 30 30 29.1046 30 28V27C30 28.1046 29.3284 29 28.5 29H1.5L2.05234 30Z" fill="#031C5A" fill-opacity="0.1"/>
<circle cx="15" cy="15" r="12" fill="url(#paint1_radial_0_3)"/>
<path d="M25 15C25 16.3132 24.7413 17.6136 24.2388 18.8268C23.7362 20.0401 22.9997 21.1425 22.0711 22.0711C21.1425 22.9997 20.0401 23.7362 18.8268 24.2388C17.6136 24.7413 16.3132 25 15 25C13.6868 25 12.3864 24.7413 11.1732 24.2388C9.95991 23.7362 8.85752 22.9997 7.92893 22.0711C7.00035 21.1425 6.26375 20.0401 5.7612 18.8268C5.25866 17.6136 5 16.3132 5 15L15 15H25Z" fill="url(#paint2_radial_0_3)"/>
<ellipse cx="15" cy="15" rx="10" ry="2" fill="#845217"/>
<circle cx="17" cy="11" r="5" fill="url(#paint3_radial_0_3)"/>
<defs>
<linearGradient id="paint0_linear_0_3" x1="4" y1="-1.60933e-07" x2="22.5" y2="30" gradientUnits="userSpaceOnUse">
<stop stop-color="#3DAEE9"/>
<stop offset="1" stop-color="#3DA5DB"/>
</linearGradient>
<radialGradient id="paint1_radial_0_3" cx="0" cy="0" r="1" gradientUnits="userSpaceOnUse" gradientTransform="translate(15 15) rotate(90) scale(14.5)">
<stop stop-color="#FFEAC6"/>
<stop offset="1" stop-color="#DFCBA8"/>
</radialGradient>
<radialGradient id="paint2_radial_0_3" cx="0" cy="0" r="1" gradientUnits="userSpaceOnUse" gradientTransform="translate(15 15) rotate(90) scale(10)">
<stop stop-color="#714406"/>
<stop offset="1" stop-color="#643E09"/>
</radialGradient>
<radialGradient id="paint3_radial_0_3" cx="0" cy="0" r="1" gradientUnits="userSpaceOnUse" gradientTransform="translate(15 9) rotate(54.4623) scale(8.60233)">
<stop stop-color="#FF6347"/>
<stop offset="1" stop-color="#ED5C42"/>
</radialGradient>
</defs>
</svg>
