<svg width="48" height="48" viewBox="0 0 12.7 12.7" xml:space="preserve" xmlns:xlink="http://www.w3.org/1999/xlink" xmlns="http://www.w3.org/2000/svg"><defs><radialGradient id="b" cx="0" cy="0" r="1" gradientUnits="userSpaceOnUse" gradientTransform="rotate(90 0 6.35) scale(5.11528)" fx="0" fy="0" fr="0" spreadMethod="pad"><stop stop-color="#FFEAC6" offset="0" style="stop-color:#fee2b4;stop-opacity:1"/><stop offset="1" stop-color="#F1DCB7" style="stop-color:#feeac4;stop-opacity:1"/></radialGradient><radialGradient id="c" cx="0" cy="0" r="1" gradientUnits="userSpaceOnUse" gradientTransform="rotate(54.462 -.681 8.154) scale(3.03471)"><stop stop-color="tomato" offset="0" style="stop-color:#dc4e5c;stop-opacity:1"/><stop offset="1" stop-color="#ED593E" style="stop-color:#c0392b;stop-opacity:1"/></radialGradient><radialGradient id="i" cx="0" cy="0" r="1" gradientUnits="userSpaceOnUse" gradientTransform="rotate(54.462 -.595 8.11) scale(3.03471)"><stop stop-color="tomato" offset="0" style="stop-color:#da4453;stop-opacity:1"/><stop offset="1" stop-color="#ED593E" style="stop-color:#c0392b;stop-opacity:1"/></radialGradient><radialGradient id="h" cx="0" cy="0" r="1" gradientUnits="userSpaceOnUse" gradientTransform="rotate(90 0 6.35) scale(3.52778)"><stop stop-color="#714406" offset="0" style="stop-color:#915908;stop-opacity:1"/><stop offset="1" stop-color="#694007" style="stop-color:#7c4c08;stop-opacity:1"/></radialGradient><radialGradient id="g" cx="0" cy="0" r="1" gradientUnits="userSpaceOnUse" gradientTransform="rotate(90 0 6.35) scale(5.11528)" xlink:href="#b"><stop stop-color="#FFEAC6" offset="0" style="stop-color:#fee2b4;stop-opacity:1"/><stop offset="1" stop-color="#F1DCB7" style="stop-color:#feeac4;stop-opacity:1"/></radialGradient><radialGradient xlink:href="#c" id="j" gradientUnits="userSpaceOnUse" gradientTransform="matrix(1.7197 2.4077 -2.40759 1.7198 6.72 4.465)" cx="0" cy="0" r="1"/><linearGradient id="d"><stop style="stop-color:#000;stop-opacity:.22727273" offset="0"/><stop style="stop-color:#000;stop-opacity:0" offset="1"/></linearGradient><linearGradient id="a"><stop stop-color="#da4453" offset="0"/><stop stop-color="#da4453" stop-opacity=".558" offset="1"/></linearGradient><linearGradient id="e" x1="3.2" y1="0" x2="18" y2="24" gradientUnits="userSpaceOnUse" gradientTransform="matrix(.47673 0 0 .4648 1.058 1.058)"><stop stop-color="#3DAEE9" offset="0" style="stop-color:#3daee9;stop-opacity:1"/><stop offset="1" stop-color="#3DA5DB" style="stop-color:#2980b9;stop-opacity:1"/></linearGradient><linearGradient xlink:href="#d" id="f" x1="8.635" y1="3.683" x2="10.902" y2="5.95" gradientUnits="userSpaceOnUse" gradientTransform="translate(0 .265)"/></defs><path style="fill:#1e5e88;fill-opacity:1;stroke-width:.470411" d="M2.381 11.642a1.32 1.32 0 0 1-1.323-1.323V6.35h10.584v3.969a1.32 1.32 0 0 1-1.323 1.323z"/><path style="fill:#90c4e6;fill-opacity:1;stroke-width:.470411" d="M2.381 1.058a1.32 1.32 0 0 0-1.323 1.323V6.35h10.584V2.381a1.32 1.32 0 0 0-1.323-1.323H2.38z"/><rect width="10.583" height="10.054" rx="1.323" fill="url(#e)" x="1.058" y="1.323" style="fill:url(#e);stroke-width:.470729" ry="1.323"/><path style="fill:url(#f);fill-opacity:1;stroke-width:.564999" d="M9.375 3.378 3.294 9.279l2.097 2.098h4.928a1.32 1.32 0 0 0 1.323-1.323v-4.41Z"/><path style="fill:#fef9ec;stroke-width:.440971;fill-opacity:1" d="M6.35 2.117A4.233 4.233 0 0 0 2.117 6.35h8.466A4.233 4.233 0 0 0 6.35 2.117z"/><path style="fill:#fdc35d;stroke-width:.440971;fill-opacity:1" d="M6.35 10.583A4.233 4.233 0 0 1 2.117 6.35h8.466a4.233 4.233 0 0 1-4.233 4.233z"/><ellipse cx="6.35" cy="6.35" fill="url(#g)" style="fill:url(#g);stroke-width:.440971" rx="4.233" ry="3.969"/><path d="M9.878 6.35a3.527 3.527 0 1 1-7.056 0H6.35z" fill="url(#h)" style="fill:url(#h);stroke-width:.440971"/><ellipse cx="6.35" cy="6.35" rx="3.528" ry=".706" fill="#845217" style="fill:#a3661d;fill-opacity:1;stroke-width:.440971"/><path fill-rule="evenodd" clip-rule="evenodd" d="M5.037 2.841c.151-.066.313.05.313.215 0 .094-.056.18-.14.221A4.251 4.251 0 0 0 3.276 5.21a.249.249 0 0 1-.221.141c-.165 0-.28-.162-.215-.313A4.249 4.249 0 0 1 5.037 2.84Z" fill="#fcfcfc" style="stroke-width:.440971"/><circle cx="7.408" cy="5.153" fill="url(#i)" style="fill:url(#j);stroke-width:.429936" r="1.72"/><path style="fill:#b23528;fill-opacity:1;stroke-width:.429936" d="M5.694 5.024a1.72 1.72 0 0 0-.005.129 1.72 1.72 0 0 0 1.72 1.72 1.72 1.72 0 0 0 1.72-1.72 1.72 1.72 0 0 0-.006-.128 1.72 1.72 0 0 1-1.715 1.59 1.72 1.72 0 0 1-1.714-1.59Z"/></svg>