<svg width="30" height="30" viewBox="0 0 30 30" fill="none" xmlns="http://www.w3.org/2000/svg">
<rect width="30" height="30" rx="2" fill="url(#paint0_linear_0_3)"/>
<path fill-rule="evenodd" clip-rule="evenodd" d="M0 27V28C0 29.1046 1 30 2.05234 30L1.5 29C0.671572 29 0 28.1046 0 27ZM2.05234 30H28C29 30 30 29.1046 30 28V27C30 28.1046 29.3284 29 28.5 29H1.5L2.05234 30Z" fill="#031C5A" fill-opacity="0.1"/>
<path d="M15 23L13 25H17L15 23Z" fill="#FCFCFC"/>
<path d="M12.6464 24.6464L11.7929 25.5H13H17H18.2071L17.3536 24.6464L15.3536 22.6464L15 22.2929L14.6464 22.6464L12.6464 24.6464Z" stroke="black" stroke-opacity="0.03"/>
<rect x="14" y="18" width="2" height="2" fill="#FCFCFC"/>
<rect x="13.5" y="17.5" width="3" height="3" stroke="black" stroke-opacity="0.03"/>
<rect width="1" height="1" transform="matrix(-1 0 0 1 20 19)" fill="#FCFCFC"/>
<rect x="0.5" y="-0.5" width="2" height="2" transform="matrix(-1 0 0 1 21 19)" stroke="black" stroke-opacity="0.03"/>
<rect width="1" height="1" transform="matrix(-1 0 0 1 24 19)" fill="#FCFCFC"/>
<rect x="0.5" y="-0.5" width="2" height="2" transform="matrix(-1 0 0 1 25 19)" stroke="black" stroke-opacity="0.03"/>
<rect width="1" height="1" transform="matrix(-1 0 0 1 7 19)" fill="#FCFCFC"/>
<rect x="0.5" y="-0.5" width="2" height="2" transform="matrix(-1 0 0 1 8 19)" stroke="black" stroke-opacity="0.03"/>
<rect width="1" height="1" transform="matrix(-1 0 0 1 11 19)" fill="#FCFCFC"/>
<rect x="0.5" y="-0.5" width="2" height="2" transform="matrix(-1 0 0 1 12 19)" stroke="black" stroke-opacity="0.03"/>
<path d="M14.501 16H7.01602V14.425L9.70102 11.71C10.241 11.15 10.676 10.685 11.006 10.315C11.336 9.935 11.576 9.595 11.726 9.295C11.876 8.985 11.951 8.655 11.951 8.305C11.951 7.875 11.831 7.555 11.591 7.345C11.361 7.135 11.046 7.03 10.646 7.03C10.236 7.03 9.83602 7.125 9.44602 7.315C9.05602 7.505 8.64602 7.775 8.21602 8.125L6.98602 6.67C7.29602 6.4 7.62102 6.15 7.96102 5.92C8.31102 5.69 8.71102 5.505 9.16102 5.365C9.62102 5.215 10.171 5.14 10.811 5.14C11.511 5.14 12.111 5.27 12.611 5.53C13.121 5.78 13.511 6.125 13.781 6.565C14.061 6.995 14.201 7.485 14.201 8.035C14.201 8.485 14.131 8.9 13.991 9.28C13.861 9.66 13.666 10.03 13.406 10.39C13.156 10.74 12.846 11.105 12.476 11.485C12.106 11.855 11.686 12.26 11.216 12.7L9.83602 13.99V14.095H14.501V16ZM19.5 9.16C20.15 9.16 20.73 9.285 21.24 9.535C21.75 9.785 22.15 10.15 22.44 10.63C22.74 11.11 22.89 11.705 22.89 12.415C22.89 13.185 22.73 13.85 22.41 14.41C22.09 14.97 21.61 15.4 20.97 15.7C20.34 16 19.555 16.15 18.615 16.15C18.055 16.15 17.525 16.1 17.025 16C16.535 15.9 16.105 15.755 15.735 15.565V13.615C16.105 13.805 16.55 13.97 17.07 14.11C17.59 14.24 18.08 14.305 18.54 14.305C18.99 14.305 19.365 14.245 19.665 14.125C19.975 14.005 20.21 13.82 20.37 13.57C20.53 13.32 20.61 13 20.61 12.61C20.61 12.08 20.435 11.68 20.085 11.41C19.735 11.13 19.195 10.99 18.465 10.99C18.185 10.99 17.895 11.02 17.595 11.08C17.295 11.13 17.045 11.18 16.845 11.23L15.945 10.75L16.35 5.29H22.155V7.21H18.33L18.135 9.31C18.305 9.28 18.485 9.25 18.675 9.22C18.875 9.18 19.15 9.16 19.5 9.16Z" fill="#FCFCFC"/>
<path d="M14.501 16V17H15.501V16H14.501ZM7.01602 16H6.01602V17H7.01602V16ZM7.01602 14.425L6.30499 13.7218L6.01602 14.014V14.425H7.01602ZM9.70102 11.71L10.4121 12.4132L10.4209 12.4041L9.70102 11.71ZM11.006 10.315L11.7524 10.9807L11.761 10.9707L11.006 10.315ZM11.726 9.295L12.6205 9.74225L12.6262 9.73056L11.726 9.295ZM11.591 7.345L10.9167 8.08348L10.9246 8.09061L10.9325 8.09758L11.591 7.345ZM9.44602 7.315L9.00805 6.41601L9.00805 6.41601L9.44602 7.315ZM8.21602 8.125L7.45233 8.77059L8.08602 9.5202L8.84729 8.90056L8.21602 8.125ZM6.98602 6.67L6.32923 5.91592L5.58619 6.56308L6.22233 7.31559L6.98602 6.67ZM7.96102 5.92L7.41179 5.08422L7.40071 5.09172L7.96102 5.92ZM9.16102 5.365L9.45811 6.31994L9.47104 6.31573L9.16102 5.365ZM12.611 5.53L12.1497 6.41722L12.1602 6.42269L12.1709 6.42792L12.611 5.53ZM13.781 6.565L12.9287 7.08802L12.9357 7.09944L12.943 7.11067L13.781 6.565ZM13.991 9.28L13.0527 8.93429L13.0486 8.94526L13.0449 8.95631L13.991 9.28ZM13.406 10.39L12.5953 9.8045L12.5923 9.80876L13.406 10.39ZM12.476 11.485L13.1832 12.1922L13.1925 12.1826L12.476 11.485ZM11.216 12.7L11.8989 13.4305L11.8994 13.43L11.216 12.7ZM9.83602 13.99L9.15313 13.2595L8.83602 13.5559V13.99H9.83602ZM9.83602 14.095H8.83602V15.095H9.83602V14.095ZM14.501 14.095H15.501V13.095H14.501V14.095ZM14.501 15H7.01602V17H14.501V15ZM8.01602 16V14.425H6.01602V16H8.01602ZM7.72704 15.1282L10.412 12.4132L8.98999 11.0068L6.30499 13.7218L7.72704 15.1282ZM10.4209 12.4041C10.9654 11.8394 11.4103 11.3641 11.7523 10.9806L10.2597 9.64938C9.94175 10.0059 9.5166 10.4606 8.98117 11.0159L10.4209 12.4041ZM11.761 10.9707C12.1216 10.5556 12.4192 10.1446 12.6204 9.74221L10.8316 8.84779C10.7328 9.04536 10.5505 9.31445 10.251 9.65931L11.761 10.9707ZM12.6262 9.73056C12.843 9.28249 12.951 8.80331 12.951 8.305H10.951C10.951 8.50669 10.909 8.68751 10.8259 8.85944L12.6262 9.73056ZM12.951 8.305C12.951 7.69226 12.7751 7.05227 12.2495 6.59242L10.9325 8.09758C10.9193 8.08602 10.9184 8.07693 10.9247 8.09362C10.9333 8.11655 10.951 8.18022 10.951 8.305H12.951ZM12.2653 6.60651C11.8033 6.18467 11.2223 6.03 10.646 6.03V8.03C10.7598 8.03 10.8289 8.04506 10.866 8.05743C10.8997 8.06866 10.9118 8.07897 10.9167 8.08348L12.2653 6.60651ZM10.646 6.03C10.0755 6.03 9.52636 6.1635 9.00805 6.41601L9.88399 8.21399C10.1457 8.0865 10.3966 8.03 10.646 8.03V6.03ZM9.00805 6.41601C8.53313 6.64738 8.05867 6.96368 7.58474 7.34944L8.84729 8.90056C9.23336 8.58632 9.5789 8.36262 9.88399 8.21399L9.00805 6.41601ZM8.9797 7.47941L7.7497 6.02441L6.22233 7.31559L7.45233 8.77059L8.9797 7.47941ZM7.6428 7.42408C7.92222 7.18071 8.21501 6.9555 8.52133 6.74828L7.40071 5.09172C7.02702 5.3445 6.66981 5.61929 6.32923 5.91592L7.6428 7.42408ZM8.51019 6.7557C8.77307 6.58296 9.08629 6.43553 9.45808 6.31986L8.86395 4.41014C8.33574 4.57447 7.84896 4.79704 7.41184 5.08429L8.51019 6.7557ZM9.47104 6.31573C9.80456 6.20697 10.2444 6.14 10.811 6.14V4.14C10.0976 4.14 9.43747 4.22303 8.851 4.41427L9.47104 6.31573ZM10.811 6.14C11.3886 6.14 11.8226 6.24712 12.1497 6.41722L13.0724 4.64278C12.3995 4.29288 11.6335 4.14 10.811 4.14V6.14ZM12.1709 6.42792C12.5284 6.60318 12.7676 6.82549 12.9287 7.08802L14.6333 6.04198C14.2544 5.4245 13.7136 4.95682 13.0512 4.63208L12.1709 6.42792ZM12.943 7.11067C13.1096 7.36652 13.201 7.66418 13.201 8.035H15.201C15.201 7.30582 15.0124 6.62348 14.619 6.01933L12.943 7.11067ZM13.201 8.035C13.201 8.38009 13.1476 8.67661 13.0527 8.93429L14.9294 9.62571C15.1144 9.12339 15.201 8.58991 15.201 8.035H13.201ZM13.0449 8.95631C12.95 9.23353 12.8035 9.51622 12.5953 9.80451L14.2167 10.9755C14.5285 10.5438 14.772 10.0865 14.9372 9.60369L13.0449 8.95631ZM12.5923 9.80876C12.3776 10.1094 12.102 10.4357 11.7595 10.7874L13.1925 12.1826C13.59 11.7743 13.9345 11.3706 14.2197 10.9712L12.5923 9.80876ZM11.7689 10.7779C11.4082 11.1386 10.9963 11.5359 10.5326 11.97L11.8994 13.43C12.3757 12.9841 12.8038 12.5714 13.1831 12.1921L11.7689 10.7779ZM10.5331 11.9695L9.15313 13.2595L10.5189 14.7205L11.8989 13.4305L10.5331 11.9695ZM8.83602 13.99V14.095H10.836V13.99H8.83602ZM9.83602 15.095H14.501V13.095H9.83602V15.095ZM13.501 14.095V16H15.501V14.095H13.501ZM22.44 10.63L21.5841 11.1471L21.588 11.1536L21.592 11.16L22.44 10.63ZM22.41 14.41L21.5418 13.9139L22.41 14.41ZM20.97 15.7L20.5456 14.7945L20.5401 14.7971L20.97 15.7ZM17.025 16L16.825 16.9798L16.8289 16.9806L17.025 16ZM15.735 15.565H14.735V16.1756L15.2782 16.4546L15.735 15.565ZM15.735 13.615L16.1918 12.7254L14.735 11.9773V13.615H15.735ZM17.07 14.11L16.81 15.0756L16.8187 15.078L16.8275 15.0801L17.07 14.11ZM19.665 14.125L19.304 13.1924L19.2936 13.1965L19.665 14.125ZM20.37 13.57L21.2123 14.1091L20.37 13.57ZM20.085 11.41L19.4603 12.1909L19.4672 12.1964L19.4742 12.2018L20.085 11.41ZM17.595 11.08L17.7594 12.0664L17.7753 12.0637L17.7911 12.0606L17.595 11.08ZM16.845 11.23L16.3744 12.1124L16.7141 12.2935L17.0875 12.2001L16.845 11.23ZM15.945 10.75L14.9477 10.676L14.8995 11.3258L15.4744 11.6324L15.945 10.75ZM16.35 5.29V4.29H15.4214L15.3527 5.21603L16.35 5.29ZM22.155 5.29H23.155V4.29H22.155V5.29ZM22.155 7.21V8.21H23.155V7.21H22.155ZM18.33 7.21V6.21H17.4186L17.3343 7.11754L18.33 7.21ZM18.135 9.31L17.1393 9.21754L17.0181 10.5226L18.3088 10.2948L18.135 9.31ZM18.675 9.22L18.831 10.2078L18.8511 10.2046L18.8711 10.2006L18.675 9.22ZM19.5 10.16C20.0195 10.16 20.4454 10.2592 20.7998 10.4329L21.6802 8.63708C21.0146 8.31083 20.2805 8.16 19.5 8.16V10.16ZM20.7998 10.4329C21.1399 10.5996 21.3946 10.8335 21.5841 11.1471L23.2959 10.1129C22.9054 9.46649 22.3601 8.97036 21.6802 8.63708L20.7998 10.4329ZM21.592 11.16C21.7702 11.4452 21.89 11.845 21.89 12.415H23.89C23.89 11.565 23.7098 10.7748 23.288 10.1L21.592 11.16ZM21.89 12.415C21.89 13.0448 21.7601 13.5318 21.5418 13.9139L23.2782 14.9061C23.6999 14.1682 23.89 13.3252 23.89 12.415H21.89ZM21.5418 13.9139C21.3338 14.2778 21.0178 14.5732 20.5456 14.7945L21.3944 16.6055C22.2022 16.2268 22.8462 15.6622 23.2782 14.9061L21.5418 13.9139ZM20.5401 14.7971C20.0825 15.015 19.4553 15.15 18.615 15.15V17.15C19.6547 17.15 20.5975 16.985 21.3999 16.6029L20.5401 14.7971ZM18.615 15.15C18.1145 15.15 17.6506 15.1053 17.2211 15.0194L16.8289 16.9806C17.3994 17.0947 17.9955 17.15 18.615 17.15V15.15ZM17.225 15.0202C16.8069 14.9349 16.4663 14.8164 16.1918 14.6754L15.2782 16.4546C15.7437 16.6936 16.2631 16.8651 16.825 16.9798L17.225 15.0202ZM16.735 15.565V13.615H14.735V15.565H16.735ZM15.2782 14.5046C15.7261 14.7346 16.2407 14.9223 16.81 15.0756L17.33 13.1444C16.8593 13.0177 16.4839 12.8754 16.1918 12.7254L15.2782 14.5046ZM16.8275 15.0801C17.4141 15.2268 17.9861 15.305 18.54 15.305V13.305C18.1739 13.305 17.7659 13.2532 17.3125 13.1399L16.8275 15.0801ZM18.54 15.305C19.0708 15.305 19.5817 15.2353 20.0364 15.0535L19.2936 13.1965C19.1483 13.2547 18.9092 13.305 18.54 13.305V15.305ZM20.026 15.0576C20.5093 14.8705 20.9241 14.5593 21.2123 14.1091L19.5277 13.0309C19.4959 13.0807 19.4407 13.1395 19.304 13.1924L20.026 15.0576ZM21.2123 14.1091C21.503 13.6549 21.61 13.1322 21.61 12.61H19.61C19.61 12.8678 19.557 12.9851 19.5277 13.0309L21.2123 14.1091ZM21.61 12.61C21.61 11.839 21.3412 11.1161 20.6958 10.6182L19.4742 12.2018C19.5288 12.2439 19.61 12.321 19.61 12.61H21.61ZM20.7097 10.6291C20.1012 10.1423 19.2898 9.99 18.465 9.99V11.99C19.1002 11.99 19.3688 12.1177 19.4603 12.1909L20.7097 10.6291ZM18.465 9.99C18.1134 9.99 17.7576 10.0277 17.3989 10.0994L17.7911 12.0606C18.0324 12.0123 18.2566 11.99 18.465 11.99V9.99ZM17.4306 10.0936C17.1154 10.1461 16.8373 10.2012 16.6025 10.2599L17.0875 12.2001C17.2527 12.1588 17.4746 12.1139 17.7594 12.0664L17.4306 10.0936ZM17.3156 10.3476L16.4156 9.86765L15.4744 11.6324L16.3744 12.1124L17.3156 10.3476ZM16.9423 10.824L17.3473 5.36397L15.3527 5.21603L14.9477 10.676L16.9423 10.824ZM16.35 6.29H22.155V4.29H16.35V6.29ZM21.155 5.29V7.21H23.155V5.29H21.155ZM22.155 6.21H18.33V8.21H22.155V6.21ZM17.3343 7.11754L17.1393 9.21754L19.1307 9.40246L19.3257 7.30246L17.3343 7.11754ZM18.3088 10.2948C18.4722 10.2659 18.6463 10.2369 18.831 10.2078L18.519 8.23224C18.3237 8.26307 18.1378 8.29406 17.9612 8.32522L18.3088 10.2948ZM18.8711 10.2006C18.9768 10.1794 19.1763 10.16 19.5 10.16V8.16C19.1237 8.16 18.7732 8.18055 18.4789 8.23942L18.8711 10.2006Z" fill="black" fill-opacity="0.03"/>
<defs>
<linearGradient id="paint0_linear_0_3" x1="4" y1="-1.60933e-07" x2="22.5" y2="30" gradientUnits="userSpaceOnUse">
<stop stop-color="#DA4453"/>
<stop offset="1" stop-color="#A83541"/>
</linearGradient>
</defs>
</svg>
